<?xml version="1.0" encoding="UTF-8" standalone="no"?>
<!-- Created with Inkscape (http://www.inkscape.org/) -->

<svg
   width="209.99219mm"
   height="83.570122mm"
   viewBox="0 0 209.99219 83.570122"
   version="1.1"
   id="svg1"
   xml:space="preserve"
   inkscape:version="1.3.2 (091e20e, 2023-11-25, custom)"
   sodipodi:docname="drawing.svg"
   xmlns:inkscape="http://www.inkscape.org/namespaces/inkscape"
   xmlns:sodipodi="http://sodipodi.sourceforge.net/DTD/sodipodi-0.dtd"
   xmlns="http://www.w3.org/2000/svg"
   xmlns:svg="http://www.w3.org/2000/svg"><sodipodi:namedview
     id="namedview1"
     pagecolor="#ffffff"
     bordercolor="#000000"
     borderopacity="0.25"
     inkscape:showpageshadow="2"
     inkscape:pageopacity="0.0"
     inkscape:pagecheckerboard="0"
     inkscape:deskcolor="#d1d1d1"
     inkscape:document-units="mm"
     showguides="true"
     inkscape:zoom="8"
     inkscape:cx="542.75"
     inkscape:cy="190.0625"
     inkscape:window-width="2560"
     inkscape:window-height="1369"
     inkscape:window-x="-8"
     inkscape:window-y="-8"
     inkscape:window-maximized="1"
     inkscape:current-layer="layer1"
     inkscape:export-bgcolor="#ffffff1c"><sodipodi:guide
       position="167.05917,217.52148"
       orientation="0,-1"
       id="guide10"
       inkscape:locked="false" /><sodipodi:guide
       position="163.89255,217.71029"
       orientation="1,0"
       id="guide11"
       inkscape:locked="false" /><sodipodi:guide
       position="176.79381,215.35919"
       orientation="1,0"
       id="guide27"
       inkscape:locked="false" /></sodipodi:namedview><defs
     id="defs1"><inkscape:path-effect
       effect="powerclip"
       id="path-effect64"
       is_visible="true"
       lpeversion="1"
       inverse="true"
       flatten="false"
       hide_clip="false"
       message="Use fill-rule evenodd on &lt;b&gt;fill and stroke&lt;/b&gt; dialog if no flatten result after convert clip to paths." /><inkscape:path-effect
       effect="powerclip"
       id="path-effect62"
       is_visible="true"
       lpeversion="1"
       inverse="true"
       flatten="false"
       hide_clip="false"
       message="Use fill-rule evenodd on &lt;b&gt;fill and stroke&lt;/b&gt; dialog if no flatten result after convert clip to paths." /><inkscape:path-effect
       effect="powerclip"
       id="path-effect60"
       is_visible="true"
       lpeversion="1"
       inverse="true"
       flatten="false"
       hide_clip="false"
       message="Use fill-rule evenodd on &lt;b&gt;fill and stroke&lt;/b&gt; dialog if no flatten result after convert clip to paths." /><clipPath
       clipPathUnits="userSpaceOnUse"
       id="clipath_lpe_path-effect60"><rect
         style="display:none;fill:#9f87af;fill-opacity:1;stroke-width:0.234531"
         id="rect70"
         width="136.49727"
         height="120.78367"
         x="12.840927"
         y="67.364838"
         sodipodi:type="rect"
         d="M 12.840927,67.364838 H 149.3382 V 188.14851 H 12.840927 Z" /><path
         id="lpe_path-effect60"
         style="display:inline;fill:#9f87af;fill-opacity:1;stroke-width:0.234531"
         class="powerclip"
         d="M 19.077083,99.34562 H 234.92291 v 84.51271 H 19.077083 Z M 12.840927,67.364838 V 188.14851 H 149.3382 V 67.364838 Z" /></clipPath><clipPath
       clipPathUnits="userSpaceOnUse"
       id="clipath_lpe_path-effect64"><rect
         style="display:none;fill:#9f87af;fill-opacity:1;stroke-width:0.234531"
         id="rect72"
         width="81.147865"
         height="109.29163"
         x="342.28772"
         y="84.513382"
         sodipodi:type="rect"
         d="m 342.28772,84.513382 h 81.14787 V 193.80502 h -81.14787 z" /><path
         id="lpe_path-effect64"
         style="display:inline;fill:#9f87af;fill-opacity:1;stroke-width:0.234531"
         class="powerclip"
         d="M 204.83063,99.245831 H 420.67646 V 183.75854 H 204.83063 Z M 342.28772,84.513382 V 193.80502 h 81.14787 V 84.513382 Z" /></clipPath></defs><g
     inkscape:label="Layer 1"
     inkscape:groupmode="layer"
     id="layer1"
     transform="translate(-0.00498446,-105.89219)"><rect
       style="display:none;fill:#83c9f4;fill-opacity:1;stroke-width:0.264583"
       id="rect77"
       width="224.69348"
       height="186.34032"
       x="-12.347852"
       y="-4.6772165" /><g
       id="g19"
       inkscape:label="arms"
       style="display:none;opacity:1"
       sodipodi:insensitive="true"
       transform="translate(29.117647,15.318414)"><path
         style="display:inline;fill:#ffccaa;stroke:#000000;stroke-width:0.231;stroke-dasharray:none;stroke-opacity:1;paint-order:stroke fill markers"
         d="m 160.90665,178.97858 c -0.20573,1.20268 -1.64578,1.96228 -1.64578,1.96228 0,0 -1.15521,2.27877 -2.13635,2.54779 -0.98114,0.26902 -0.3165,-0.0158 -0.61717,0 -0.30067,0.0158 -0.31649,-0.1266 -0.41144,-0.17407 -0.095,-0.0475 0.69629,-0.2532 0.71211,-0.45892 0.0158,-0.20573 -0.69629,0.14242 -0.36397,-0.91784 0.33232,-1.06027 0.72794,-0.80707 0.98114,-0.88619 0.2532,-0.0791 0.61717,0.34814 1.7249,-2.43702 1.10774,-2.78517 0.36397,-4.05115 1.23434,-4.63667 0.87036,-0.58552 1.99393,-0.3165 2.2946,-1.02861 0.30067,-0.71212 -1.77238,6.02925 -1.77238,6.02925 z"
         id="path12" /><path
         style="display:inline;fill:#ffccaa;stroke:#000000;stroke-width:0.231;stroke-dasharray:none;stroke-opacity:1;paint-order:stroke fill markers"
         d="m 166.86204,178.96725 c 0.20573,1.20268 1.64578,1.96228 1.64578,1.96228 0,0 1.15521,2.27877 2.13635,2.54779 0.98114,0.26902 0.3165,-0.0158 0.61717,0 0.30067,0.0158 0.31649,-0.1266 0.41144,-0.17407 0.095,-0.0475 -0.69629,-0.2532 -0.71211,-0.45892 -0.0158,-0.20573 0.69629,0.14242 0.36397,-0.91784 -0.33232,-1.06027 -0.72794,-0.80707 -0.98114,-0.88619 -0.2532,-0.0791 -0.61717,0.34814 -1.7249,-2.43702 -1.10774,-2.78517 -0.36397,-4.05115 -1.23434,-4.63667 -0.87036,-0.58552 -1.99393,-0.3165 -2.2946,-1.02861 -0.30067,-0.71212 1.77238,6.02925 1.77238,6.02925 z"
         id="path12-5" /></g><path
       style="display:none;fill:#ffccaa;stroke:#bbcc89;stroke-width:0.0499999;paint-order:stroke fill markers"
       id="path2"
       sodipodi:type="arc"
       sodipodi:cx="69.629158"
       sodipodi:cy="153.56393"
       sodipodi:rx="4.304348"
       sodipodi:ry="17.597185"
       sodipodi:start="0"
       sodipodi:end="6.2765067"
       sodipodi:arc-type="slice"
       d="m 73.933506,153.56393 a 4.304348,17.597185 0 0 1 -4.297161,17.59716 4.304348,17.597185 0 0 1 -4.311511,-17.53839 4.304348,17.597185 0 0 1 4.282764,-17.65573 4.304348,17.597185 0 0 1 4.325812,17.47944 l -4.304252,0.11752 z" /><path
       id="path9"
       d="M 163.83424,185.14672 C 0,0 0,0 163.83424,185.14672 Z"
       style="display:none;fill:#ffccaa;stroke:#000000;stroke-width:0.316592;stroke-dasharray:none;stroke-opacity:1;paint-order:stroke fill markers"
       sodipodi:nodetypes="ss" /><ellipse
       style="display:none;fill:#ff6600;stroke:#000000;stroke-width:0.2;stroke-dasharray:none;stroke-opacity:1;paint-order:stroke fill markers"
       id="path17"
       cx="139.51479"
       cy="168.47406"
       rx="2.7750776"
       ry="5.0578027" /><ellipse
       style="display:none;fill:#c87137;stroke:#000000;stroke-width:0.2;stroke-dasharray:none;stroke-opacity:1;paint-order:stroke fill markers"
       id="path18"
       cx="149.8318"
       cy="174.67323"
       rx="1.4546778"
       ry="3.2002912" /><path
       id="path1-5-6"
       style="display:none;fill:#ede8d0;fill-opacity:1;stroke:#bbcc89;stroke-width:0.0611292;paint-order:stroke fill markers"
       d="m 171.30959,120.89153 c 17.39011,47.05113 40.06745,42.04512 -25.45799,39.20103 -82.956074,-3.60067 -81.31781,8.33486 -65.516465,-17.02915 14.024939,-22.51255 51.877555,-100.507071 68.910465,-72.068725 9.32969,15.576959 11.17176,20.426534 22.06399,49.896845 z"
       sodipodi:nodetypes="sssss" /><g
       id="g33"
       style="display:none"
       inkscape:label="Guy"
       transform="matrix(0.30429768,0,0,0.30429768,106.59605,49.475383)"><path
         id="path6"
         style="display:inline;fill:#a05a2c;stroke:#000000;stroke-width:0.279218;paint-order:stroke fill markers"
         d="m 167.18478,175.8618 c 0,-2.56178 -1.46871,-2.09572 -3.28045,-2.09572 -1.81175,0 -3.28046,-0.46607 -3.28046,2.09572 0,1.28091 0.6802,4.75773 0.6802,6.27346 0,1.5901 1.69439,0.90789 2.60026,0.90789 0.90588,0 2.70549,0.64711 2.70549,-0.94297 0,-1.76256 0.57496,-4.95748 0.57496,-6.23838 z"
         sodipodi:nodetypes="sssssss"
         inkscape:label="torso" /><g
         id="g8"
         inkscape:label="legs"><path
           id="path7"
           style="fill:#a05a2c;stroke:#000000;stroke-width:0.231;stroke-dasharray:none;stroke-opacity:1;paint-order:stroke fill markers"
           inkscape:transform-center-x="-0.46367804"
           inkscape:transform-center-y="1.3599186"
           d="m 164.98181,183.48517 c -0.69337,-0.25682 -1.5509,-0.52488 -3.20028,-1.08309 -1.64938,-0.55821 -4.53377,-0.2296 -4.44624,1.0448 0.0776,1.12932 1.48345,1.85171 2.61543,1.85485 l 8.16928,0.0226 c 0.38654,0.001 0.0821,-0.14091 -0.7443,-0.69665 -0.60121,-0.40429 -0.87779,-0.49433 -1.41276,-0.74711 -0.53496,-0.25279 -0.28776,-0.13862 -0.98113,-0.39545 z"
           sodipodi:nodetypes="zzsssszz" /><path
           id="path8"
           style="fill:#a05a2c;stroke:#000000;stroke-width:0.231;stroke-dasharray:none;stroke-opacity:1;paint-order:stroke fill markers"
           inkscape:transform-center-x="0.46368261"
           inkscape:transform-center-y="1.3599186"
           d="m 162.81758,183.4483 c 0.69337,-0.25682 1.5509,-0.52488 3.20028,-1.08309 1.64938,-0.55821 4.53377,-0.2296 4.44624,1.0448 -0.0776,1.12932 -1.48345,1.85171 -2.61543,1.85485 l -8.16928,0.0226 c -0.38654,10e-4 -0.0821,-0.14091 0.7443,-0.69665 0.60121,-0.40429 0.87779,-0.49433 1.41276,-0.74711 0.53496,-0.25279 0.28776,-0.13862 0.98113,-0.39545 z"
           sodipodi:nodetypes="zzsssszz" /></g><g
         id="g23"
         inkscape:label="arms2"
         style="display:inline;opacity:1"><path
           style="display:inline;opacity:1;fill:#ffccaa;stroke:#000000;stroke-width:0.231;stroke-dasharray:none;stroke-opacity:1;paint-order:stroke fill markers"
           d="m 168.50782,180.92953 c 0,0 1.23921,2.27904 2.21076,2.58086 1.46483,0.45506 -0.0762,-0.29278 0.22443,-0.27698 0.30067,0.0158 0.63482,0.11731 0.72977,0.0698 0.095,-0.0475 -0.7183,-0.26495 -0.71211,-0.45892 0.004,-0.11485 0.72012,-0.82924 0.56962,-0.85175 -0.28059,-0.042 -0.70015,0.9493 -1.03,-0.13623 -0.16152,-0.53156 1.12517,0.0282 0.96478,-0.12699 -0.13615,-0.13167 -0.99496,-0.64948 -1.12156,-0.68908 -0.25319,-0.0791 -1.07192,-0.16449 -2.02256,-2.8587 -0.0739,-0.20949 0.14084,2.1419 0.18688,2.74793 z"
           id="path11"
           sodipodi:nodetypes="cssssssssscc"
           inkscape:label="right arm" /><path
           style="display:inline;opacity:1;fill:#ffccaa;stroke:#000000;stroke-width:0.231;stroke-dasharray:none;stroke-opacity:1;paint-order:stroke fill markers"
           d="m 159.29437,180.91888 c 0,0 -1.23921,2.27904 -2.21076,2.58086 -1.46483,0.45506 0.0762,-0.29278 -0.22443,-0.27698 -0.30067,0.0158 -0.63482,0.11731 -0.72977,0.0698 -0.095,-0.0475 0.7183,-0.26495 0.71211,-0.45892 -0.004,-0.11485 -0.72012,-0.82924 -0.56962,-0.85175 0.28059,-0.042 0.70015,0.9493 1.03,-0.13623 0.16152,-0.53156 -1.12517,0.0282 -0.96478,-0.12699 0.13615,-0.13167 0.99496,-0.64948 1.12156,-0.68908 0.25319,-0.0791 1.07192,-0.16449 2.02256,-2.8587 0.0739,-0.20949 -0.14084,2.1419 -0.18688,2.74793 z"
           id="path14"
           sodipodi:nodetypes="cssssssssscc"
           inkscape:label="left arm" /><path
           style="display:inline;opacity:1;fill:#a05a2c;fill-opacity:1;stroke:#000000;stroke-width:0.2;stroke-dasharray:none;stroke-opacity:1;paint-order:stroke fill markers"
           d="m 157.95962,180.71119 1.0164,2.25969 c 0,0 2.2449,-0.8748 3.09625,-0.58559 0.8654,0.29399 1.62784,-1.20729 1.62784,-1.20729 0.46232,-0.78426 0.72375,-1.28504 1.44808,-2.97268 0.74819,-1.74323 0.88148,-3.54323 1.71926,-4.13556 0.45786,-0.32371 0.79053,0.13409 0.67177,-0.0105 -0.76487,-0.93129 -5.35557,-0.6724 -5.35557,-0.6724 0,0 -2.13726,0.34689 -2.24916,1.27564 -0.12305,0.7721 0.20789,1.54777 -1.34976,5.28494 z"
           id="path15"
           sodipodi:nodetypes="scscsssccss"
           inkscape:label="left sleeve" /><path
           style="display:inline;opacity:1;fill:#a05a2c;fill-opacity:1;stroke:#000000;stroke-width:0.2;stroke-dasharray:none;stroke-opacity:1;paint-order:stroke fill markers"
           d="m 167.26414,173.99394 c -1.31662,0.0322 -0.99934,3.62579 -1.05113,3.80866 -0.17578,2.24295 0.0376,4.05857 0.52347,5.48905 0,0 3.40333,-2.27566 3.19516,-2.44098 -1.63608,-1.29936 -1.96457,-4.72292 -1.96457,-4.72292 0,0 0.0457,-2.15214 -0.70293,-2.13381 z"
           id="path19"
           sodipodi:nodetypes="accsca"
           inkscape:label="right sleeve" /></g><path
         id="path25"
         style="display:inline;fill:#ffccaa;stroke:#000000;stroke-width:0.204099;paint-order:stroke fill markers"
         d="m 165.51262,170.6427 c 0,1.3626 -0.63253,2.57329 -1.63091,2.57328 -0.99838,0 -1.6309,-1.1046 -1.6309,-2.46719 0,-1.36258 0.63252,-2.1489 1.6309,-2.1489 0.99839,-10e-6 1.63091,0.68021 1.63091,2.04281 z"
         sodipodi:nodetypes="sssss"
         inkscape:label="Head" /><g
         id="g31"><path
           style="fill:#ffffff;stroke:#000000;stroke-width:0.2;stroke-dasharray:none;stroke-opacity:1;paint-order:stroke fill markers"
           d="m 165.44934,172.47937 c 0.96806,3.98906 -1.49621,5.85391 -1.49621,5.85391 0,0 -2.08706,-1.70173 -1.73161,-5.60867 0.0111,-0.12223 3.22782,-0.24524 3.22782,-0.24524 z"
           id="path26"
           sodipodi:nodetypes="ccsc"
           inkscape:label="beard" /><path
           id="path30"
           d="m 161.97469,172.91547 c 0,0 1.09919,-1.52115 1.77092,-1.25325 0.16009,0.0639 0.10065,0.50716 0.10065,0.50716 0,0 -0.003,0.044 -0.015,0.0607 -0.5153,0.68697 -2.22867,1.29239 -2.22867,1.29239 z"
           style="fill:#ffffff;stroke:#000000;stroke-width:0.17498;stroke-dasharray:none;stroke-opacity:1;paint-order:stroke fill markers"
           sodipodi:nodetypes="cacacc"
           inkscape:label="moustache2" /><path
           id="path31"
           d="m 165.88418,172.95247 c 0,0 -1.13468,-1.57027 -1.82809,-1.29372 -0.16526,0.0659 -0.10391,0.52354 -0.10391,0.52354 0,0 0.003,0.0454 0.0154,0.0627 0.53195,0.70915 2.30063,1.33411 2.30063,1.33411 z"
           style="fill:#ffffff;stroke:#000000;stroke-width:0.18063;stroke-dasharray:none;stroke-opacity:1;paint-order:stroke fill markers"
           sodipodi:nodetypes="cacacc"
           inkscape:label="moustache1" /></g><path
         id="path32"
         style="fill:#a05a2c;stroke-width:0.2;paint-order:stroke fill markers"
         d="m 167.16467,176.82849 c 0.18203,0.89548 0.0577,1.67667 -0.27771,1.74486 -0.33541,0.0682 -0.75488,-0.60248 -0.9369,-1.49795 -0.18203,-0.89548 0.533,-2.7036 0.86841,-2.77178 0.33541,-0.0682 0.16422,1.62939 0.34625,2.52486 z"
         sodipodi:nodetypes="ssssss" /><ellipse
         style="fill:#a05a2c;fill-opacity:1;stroke:none;stroke-width:0.180074;stroke-dasharray:none;stroke-opacity:1;paint-order:stroke fill markers"
         id="ellipse32"
         cx="162.05774"
         cy="183.96024"
         rx="2.5783155"
         ry="1.1868438" /><ellipse
         style="fill:#a05a2c;fill-opacity:1;stroke:none;stroke-width:0.2;stroke-dasharray:none;stroke-opacity:1;paint-order:stroke fill markers"
         id="ellipse33"
         cx="188.82507"
         cy="200.10303"
         rx="0.74250811"
         ry="0.51449382"
         transform="translate(-29.117647,-15.318414)" /></g><g
       id="g59"
       transform="matrix(1.1281361,0,0,1.1281361,-176.14673,-11.702961)"
       style="display:inline"
       clip-path="none"
       inkscape:export-filename="g59.svg"
       inkscape:export-xdpi="85.521889"
       inkscape:export-ydpi="85.521889"><path
         style="display:inline;fill:#9f87af;fill-opacity:1;stroke-width:0.264583"
         d="m 34.13125,168.80416 v -52.65208 c 0,0 11.906249,-1.32291 16.139583,16.13958 4.233333,17.4625 11.641666,-18.78541 31.749999,-9.78958 20.108338,8.99584 42.597918,46.56667 58.472918,22.225 15.875,-24.34166 10.58333,-60.324998 23.28333,-26.72291 12.7,33.60208 2.64583,-13.22917 17.19792,16.93333 14.55208,30.1625 19.11615,29.76562 19.11615,29.76562 0,0 8.17893,3.20718 18.31299,-29.93942 2.55815,-8.36722 3.84813,3.76884 3.84813,3.76884 l 7.67064,40.32579 H 24.077083 Z"
         id="path57"
         sodipodi:nodetypes="ccssssscscccc"
         inkscape:original-d="m 34.13125,168.80416 v -52.65208 c 0,0 11.906249,-1.32291 16.139583,16.13958 4.233333,17.4625 11.641666,-18.78541 31.749999,-9.78958 20.108338,8.99584 42.597918,46.56667 58.472918,22.225 15.875,-24.34166 10.58333,-60.324998 23.28333,-26.72291 12.7,33.60208 2.64583,-13.22917 17.19792,16.93333 14.55208,30.1625 19.11615,29.76562 19.11615,29.76562 0,0 8.17893,3.20718 18.31299,-29.93942 2.55815,-8.36722 3.84813,3.76884 3.84813,3.76884 l 7.67064,40.32579 H 24.077083 Z"
         clip-path="url(#clipath_lpe_path-effect60)"
         inkscape:path-effect="#path-effect60" /><path
         style="display:inline;fill:#9f87af;fill-opacity:1;stroke-width:0.264583"
         d="m 219.8848,168.70437 -0.47906,-36.32625 c 0,0 0.9221,-1.82185 2.51334,-0.72147 1.59125,1.10039 5.57143,14.44957 6.46206,16.08434 7.88571,14.47427 19.28491,-34.33453 39.39324,-25.3387 20.10834,8.99584 42.59792,46.56667 58.47292,22.225 15.875,-24.34166 10.58333,-60.324995 23.28333,-26.72291 12.7,33.60208 2.64583,-13.22917 17.19792,16.93333 14.55208,30.1625 24.07708,27.78125 24.07708,27.78125 0,0 3.218,5.19155 13.35206,-27.95505 2.55815,-8.36722 3.84813,3.76884 3.84813,3.76884 l 7.67064,40.32579 H 209.83063 Z"
         id="path58"
         sodipodi:nodetypes="ccsssssscscccc"
         inkscape:original-d="m 219.8848,168.70437 -0.47906,-36.32625 c 0,0 0.9221,-1.82185 2.51334,-0.72147 1.59125,1.10039 5.57143,14.44957 6.46206,16.08434 7.88571,14.47427 19.28491,-34.33453 39.39324,-25.3387 20.10834,8.99584 42.59792,46.56667 58.47292,22.225 15.875,-24.34166 10.58333,-60.324995 23.28333,-26.72291 12.7,33.60208 2.64583,-13.22917 17.19792,16.93333 14.55208,30.1625 24.07708,27.78125 24.07708,27.78125 0,0 3.218,5.19155 13.35206,-27.95505 2.55815,-8.36722 3.84813,3.76884 3.84813,3.76884 l 7.67064,40.32579 H 209.83063 Z"
         clip-path="url(#clipath_lpe_path-effect64)"
         inkscape:path-effect="#path-effect62;#path-effect64" /></g><rect
       style="display:none;fill:#ede8d0;fill-opacity:1;stroke-width:0.263835"
       id="rect79"
       width="209.99219"
       height="83.570122"
       x="0.0049844589"
       y="105.89219" /></g></svg>
