<?xml version="1.0" encoding="UTF-8" standalone="no"?>
<!-- Created with Inkscape (http://www.inkscape.org/) -->

<svg
   width="8.0032988mm"
   height="8.440527mm"
   viewBox="0 0 8.0032989 8.440527"
   version="1.1"
   id="svg1"
   xml:space="preserve"
   inkscape:version="1.3.2 (091e20e, 2023-11-25, custom)"
   sodipodi:docname="drawing.svg"
   inkscape:export-filename="mountain.svg"
   inkscape:export-xdpi="85.521889"
   inkscape:export-ydpi="85.521889"
   xmlns:inkscape="http://www.inkscape.org/namespaces/inkscape"
   xmlns:sodipodi="http://sodipodi.sourceforge.net/DTD/sodipodi-0.dtd"
   xmlns="http://www.w3.org/2000/svg"
   xmlns:svg="http://www.w3.org/2000/svg"><sodipodi:namedview
     id="namedview1"
     pagecolor="#ffffff"
     bordercolor="#000000"
     borderopacity="0.25"
     inkscape:showpageshadow="2"
     inkscape:pageopacity="0.0"
     inkscape:pagecheckerboard="0"
     inkscape:deskcolor="#d1d1d1"
     inkscape:document-units="mm"
     showguides="true"
     inkscape:zoom="45.254835"
     inkscape:cx="567.28745"
     inkscape:cy="39.984678"
     inkscape:window-width="2560"
     inkscape:window-height="1369"
     inkscape:window-x="-8"
     inkscape:window-y="-8"
     inkscape:window-maximized="1"
     inkscape:current-layer="g20"
     inkscape:export-bgcolor="#ffffff1c"><sodipodi:guide
       position="33.12416,229.65529"
       orientation="0,-1"
       id="guide10"
       inkscape:locked="false" /><sodipodi:guide
       position="29.95754,229.8441"
       orientation="1,0"
       id="guide11"
       inkscape:locked="false" /><sodipodi:guide
       position="42.8588,227.493"
       orientation="1,0"
       id="guide27"
       inkscape:locked="false" /><sodipodi:guide
       position="12.45018,85.449136"
       orientation="1,0"
       id="guide38"
       inkscape:locked="false" /><sodipodi:guide
       position="20.4716,84.162901"
       orientation="1,0"
       id="guide39"
       inkscape:locked="false" /><sodipodi:guide
       position="16.47258,85.215275"
       orientation="1,0"
       id="guide40"
       inkscape:locked="false" /><sodipodi:guide
       position="15.63932,85.707644"
       orientation="0,-1"
       id="guide41"
       inkscape:locked="false" /><sodipodi:guide
       position="14.68063,85.501754"
       orientation="0,-1"
       id="guide42"
       inkscape:locked="false" /><sodipodi:guide
       position="15.06358,85.168502"
       orientation="0,-1"
       id="guide43"
       inkscape:locked="false" /></sodipodi:namedview><defs
     id="defs1"><inkscape:path-effect
       effect="powerclip"
       id="path-effect64"
       is_visible="true"
       lpeversion="1"
       inverse="true"
       flatten="false"
       hide_clip="false"
       message="Use fill-rule evenodd on &lt;b&gt;fill and stroke&lt;/b&gt; dialog if no flatten result after convert clip to paths." /><inkscape:path-effect
       effect="powerclip"
       id="path-effect62"
       is_visible="true"
       lpeversion="1"
       inverse="true"
       flatten="false"
       hide_clip="false"
       message="Use fill-rule evenodd on &lt;b&gt;fill and stroke&lt;/b&gt; dialog if no flatten result after convert clip to paths." /><inkscape:path-effect
       effect="powerclip"
       id="path-effect60"
       is_visible="true"
       lpeversion="1"
       inverse="true"
       flatten="false"
       hide_clip="false"
       message="Use fill-rule evenodd on &lt;b&gt;fill and stroke&lt;/b&gt; dialog if no flatten result after convert clip to paths." /><clipPath
       clipPathUnits="userSpaceOnUse"
       id="clipath_lpe_path-effect60"><rect
         style="display:none;fill:#9f87af;fill-opacity:1;stroke-width:0.234531"
         id="rect70"
         width="136.49727"
         height="120.78367"
         x="12.840927"
         y="67.364838"
         sodipodi:type="rect"
         d="M 12.840927,67.364838 H 149.3382 V 188.14851 H 12.840927 Z" /><path
         id="lpe_path-effect60"
         style="display:inline;fill:#9f87af;fill-opacity:1;stroke-width:0.234531"
         class="powerclip"
         d="M 19.077083,99.34562 H 234.92291 v 84.51271 H 19.077083 Z M 12.840927,67.364838 V 188.14851 H 149.3382 V 67.364838 Z" /></clipPath><clipPath
       clipPathUnits="userSpaceOnUse"
       id="clipath_lpe_path-effect64"><rect
         style="display:none;fill:#9f87af;fill-opacity:1;stroke-width:0.234531"
         id="rect72"
         width="81.147865"
         height="109.29163"
         x="342.28772"
         y="84.513382"
         sodipodi:type="rect"
         d="m 342.28772,84.513382 h 81.14787 V 193.80502 h -81.14787 z" /><path
         id="lpe_path-effect64"
         style="display:inline;fill:#9f87af;fill-opacity:1;stroke-width:0.234531"
         class="powerclip"
         d="M 204.83063,99.245831 H 420.67646 V 183.75854 H 204.83063 Z M 342.28772,84.513382 V 193.80502 h 81.14787 V 84.513382 Z" /></clipPath></defs><g
     inkscape:label="Layer 1"
     inkscape:groupmode="layer"
     id="layer1"
     transform="translate(-133.94,-118.026)"><rect
       style="display:none;fill:#83c9f4;fill-opacity:1;stroke-width:0.264583"
       id="rect77"
       width="224.69348"
       height="186.34032"
       x="-12.347852"
       y="-4.6772165" /><path
       id="path9"
       d="M 163.83424,185.14672 C 0,0 0,0 163.83424,185.14672 Z"
       style="display:none;fill:#ffccaa;stroke:#000000;stroke-width:0.316592;stroke-dasharray:none;stroke-opacity:1;paint-order:stroke fill markers"
       sodipodi:nodetypes="ss" /><path
       id="path1-5-6"
       style="display:none;fill:#ede8d0;fill-opacity:1;stroke:#bbcc89;stroke-width:0.0611292;paint-order:stroke fill markers"
       d="m 171.30959,120.89153 c 17.39011,47.05113 40.06745,42.04512 -25.45799,39.20103 -82.956074,-3.60067 -81.31781,8.33486 -65.516465,-17.02915 14.024939,-22.51255 51.877555,-100.507071 68.910465,-72.068725 9.32969,15.576959 11.17176,20.426534 22.06399,49.896845 z"
       sodipodi:nodetypes="sssss" /><g
       id="g21"
       style="display:inline;stroke-width:0.196826;stroke-dasharray:none"
       inkscape:label="Guy"
       transform="matrix(0.50806419,0,0,0.50806419,54.669372,32.259873)"
       inkscape:export-filename=".\sage.svg"
       inkscape:export-xdpi="85.521889"
       inkscape:export-ydpi="85.521889"><path
         id="path10"
         style="display:inline;fill:#533e2d;fill-opacity:1;stroke:#000000;stroke-width:0.196826;stroke-dasharray:none;paint-order:stroke fill markers"
         d="m 167.18478,175.8618 c 0,-2.56178 -1.46871,-2.09572 -3.28045,-2.09572 -1.81175,0 -3.28046,-0.46607 -3.28046,2.09572 0,1.28091 0.6802,4.75773 0.6802,6.27346 0,1.5901 1.69439,0.90789 2.60026,0.90789 0.90588,0 2.70549,0.64711 2.70549,-0.94297 0,-1.76256 0.57496,-4.95748 0.57496,-6.23838 z"
         sodipodi:nodetypes="sssssss"
         inkscape:label="torso" /><g
         id="g18"
         inkscape:label="legs"
         style="fill:#905127;fill-opacity:1;stroke-width:0.196826;stroke-dasharray:none"><path
           id="rect5-3-14-7"
           style="fill:#533e2d;fill-opacity:1;stroke:#000000;stroke-width:0.196826;stroke-dasharray:none;stroke-opacity:1;paint-order:stroke fill markers"
           inkscape:transform-center-x="-0.46367804"
           inkscape:transform-center-y="1.3599186"
           d="m 164.98181,183.48517 c -0.69337,-0.25682 -1.5509,-0.52488 -3.20028,-1.08309 -1.64938,-0.55821 -4.53377,-0.2296 -4.44624,1.0448 0.0776,1.12932 1.48345,1.85171 2.61543,1.85485 l 8.16928,0.0226 c 0.38654,0.001 0.0821,-0.14091 -0.7443,-0.69665 -0.60121,-0.40429 -0.87779,-0.49433 -1.41276,-0.74711 -0.53496,-0.25279 -0.28776,-0.13862 -0.98113,-0.39545 z"
           sodipodi:nodetypes="zzsssszz" /><path
           id="rect5-3-14"
           style="fill:#533e2d;fill-opacity:1;stroke:#000000;stroke-width:0.196826;stroke-dasharray:none;stroke-opacity:1;paint-order:stroke fill markers"
           inkscape:transform-center-x="0.46368261"
           inkscape:transform-center-y="1.3599186"
           d="m 162.81758,183.4483 c 0.69337,-0.25682 1.5509,-0.52488 3.20028,-1.08309 1.64938,-0.55821 4.53377,-0.2296 4.44624,1.0448 -0.0776,1.12932 -1.48345,1.85171 -2.61543,1.85485 l -8.16928,0.0226 c -0.38654,10e-4 -0.0821,-0.14091 0.7443,-0.69665 0.60121,-0.40429 0.87779,-0.49433 1.41276,-0.74711 0.53496,-0.25279 0.28776,-0.13862 0.98113,-0.39545 z"
           sodipodi:nodetypes="zzsssszz" /><ellipse
           style="display:inline;fill:#533e2d;fill-opacity:1;stroke:none;stroke-width:0.196826;stroke-dasharray:none;stroke-opacity:1;paint-order:stroke fill markers"
           id="path28"
           cx="162.05774"
           cy="183.96024"
           rx="2.5783155"
           ry="1.1868438" /><ellipse
           style="display:inline;fill:#533e2d;fill-opacity:1;stroke:none;stroke-width:0.196826;stroke-dasharray:none;stroke-opacity:1;paint-order:stroke fill markers"
           id="path29"
           cx="188.82507"
           cy="200.10303"
           rx="0.74250811"
           ry="0.51449382"
           transform="translate(-29.117648,-15.318413)" /></g><g
         id="g22"
         inkscape:label="arms2"
         style="display:inline;opacity:1;stroke-width:0.196826;stroke-dasharray:none"><path
           style="display:inline;opacity:1;fill:#ffccaa;stroke:#000000;stroke-width:0.196826;stroke-dasharray:none;stroke-opacity:1;paint-order:stroke fill markers"
           d="m 168.50782,180.92953 c 0,0 1.23921,2.27904 2.21076,2.58086 1.46483,0.45506 -0.0762,-0.29278 0.22443,-0.27698 0.30067,0.0158 0.63482,0.11731 0.72977,0.0698 0.095,-0.0475 -0.7183,-0.26495 -0.71211,-0.45892 0.004,-0.11485 0.72012,-0.82924 0.56962,-0.85175 -0.28059,-0.042 -0.70015,0.9493 -1.03,-0.13623 -0.16152,-0.53156 1.12517,0.0282 0.96478,-0.12699 -0.13615,-0.13167 -0.99496,-0.64948 -1.12156,-0.68908 -0.25319,-0.0791 -1.07192,-0.16449 -2.02256,-2.8587 -0.0739,-0.20949 0.14084,2.1419 0.18688,2.74793 z"
           id="path22"
           sodipodi:nodetypes="cssssssssscc"
           inkscape:label="right arm" /><path
           style="display:inline;opacity:1;fill:#ffccaa;stroke:#000000;stroke-width:0.196826;stroke-dasharray:none;stroke-opacity:1;paint-order:stroke fill markers"
           d="m 159.29437,180.91888 c 0,0 -1.23921,2.27904 -2.21076,2.58086 -1.46483,0.45506 0.0762,-0.29278 -0.22443,-0.27698 -0.30067,0.0158 -0.63482,0.11731 -0.72977,0.0698 -0.095,-0.0475 0.7183,-0.26495 0.71211,-0.45892 -0.004,-0.11485 -0.72012,-0.82924 -0.56962,-0.85175 0.28059,-0.042 0.70015,0.9493 1.03,-0.13623 0.16152,-0.53156 -1.12517,0.0282 -0.96478,-0.12699 0.13615,-0.13167 0.99496,-0.64948 1.12156,-0.68908 0.25319,-0.0791 1.07192,-0.16449 2.02256,-2.8587 0.0739,-0.20949 -0.14084,2.1419 -0.18688,2.74793 z"
           id="path22-1"
           sodipodi:nodetypes="cssssssssscc"
           inkscape:label="left arm" /><path
           style="display:inline;opacity:1;fill:#533e2d;fill-opacity:1;stroke:#000000;stroke-width:0.196826;stroke-dasharray:none;stroke-opacity:1;paint-order:stroke fill markers"
           d="m 157.95962,180.71119 1.0164,2.25969 c 0,0 2.2449,-0.8748 3.09625,-0.58559 0.8654,0.29399 1.62784,-1.20729 1.62784,-1.20729 0.46232,-0.78426 0.72375,-1.28504 1.44808,-2.97268 0.74819,-1.74323 0.88148,-3.54323 1.71926,-4.13556 0.45786,-0.32371 0.79053,0.13409 0.67177,-0.0105 -0.76487,-0.93129 -5.35557,-0.6724 -5.35557,-0.6724 0,0 -2.13726,0.34689 -2.24916,1.27564 -0.12305,0.7721 0.20789,1.54777 -1.34976,5.28494 z"
           id="path23"
           sodipodi:nodetypes="scscsssccss"
           inkscape:label="left sleeve" /><path
           style="display:inline;opacity:1;fill:#533e2d;fill-opacity:1;stroke:#000000;stroke-width:0.196826;stroke-dasharray:none;stroke-opacity:1;paint-order:stroke fill markers"
           d="m 167.26414,173.99394 c -1.31662,0.0322 -0.99934,3.62579 -1.05113,3.80866 -0.17578,2.24295 0.0376,4.05857 0.52347,5.48905 0,0 3.40333,-2.27566 3.19516,-2.44098 -1.63608,-1.29936 -1.96457,-4.72292 -1.96457,-4.72292 0,0 0.0457,-2.15214 -0.70293,-2.13381 z"
           id="path24"
           sodipodi:nodetypes="accsca"
           inkscape:label="right sleeve" /><path
           id="path27"
           style="display:inline;fill:#533e2d;fill-opacity:1;stroke-width:0.196826;stroke-dasharray:none;paint-order:stroke fill markers"
           d="m 167.16467,176.82849 c 0.18203,0.89548 0.0577,1.67667 -0.27771,1.74486 -0.33541,0.0682 -0.75488,-0.60248 -0.9369,-1.49795 -0.18203,-0.89548 0.533,-2.7036 0.86841,-2.77178 0.33541,-0.0682 0.16422,1.62939 0.34625,2.52486 z"
           sodipodi:nodetypes="ssssss" /></g><path
         id="path13"
         style="display:inline;fill:#ffccaa;stroke:#000000;stroke-width:0.196826;stroke-dasharray:none;paint-order:stroke fill markers"
         d="m 165.51645,170.84185 c 0,1.25917 -0.63401,2.37797 -1.63474,2.37796 -1.00073,0 -1.63473,-1.02076 -1.63473,-2.27993 0,-1.51954 0.634,-2.03183 1.63473,-2.03183 1.00074,-1e-5 1.63474,0.42237 1.63474,1.9338 z"
         sodipodi:nodetypes="sssss"
         inkscape:label="Head"
         transform="translate(1.6844984e-6)" /><g
         id="g20"
         style="display:inline;stroke-width:0.196826;stroke-dasharray:none"><path
           style="fill:#ffffff;stroke:#000000;stroke-width:0.196826;stroke-dasharray:none;stroke-opacity:1;paint-order:stroke fill markers"
           d="m 165.55035,171.29155 c 0.96806,3.98906 -1.62977,7.03359 -1.62977,7.03359 0,0 -2.6195,-4.18615 -1.72347,-7.00823 0.0181,-0.057 0.37126,0.90585 1.50439,0.848 l 0.37778,-0.0255 c 0.69195,0.13228 1.27039,-0.30483 1.47107,-0.84786 z"
           id="path16"
           sodipodi:nodetypes="ccsccc"
           inkscape:label="beard" /><path
           id="rect17"
           d="m 162.2133,172.75449 c 0,0 0.9713,-1.34415 1.56487,-1.10743 0.14146,0.0565 0.0889,0.44815 0.0889,0.44815 0,0 -0.003,0.0389 -0.0133,0.0536 -0.45534,0.60704 -1.96935,1.14202 -1.96935,1.14202 z"
           style="display:inline;fill:#ffffff;stroke:#000000;stroke-width:0.173925;stroke-dasharray:none;stroke-opacity:1;paint-order:stroke fill markers"
           sodipodi:nodetypes="cacacc"
           inkscape:label="moustache2" /><path
           id="path42"
           d="m 165.61707,172.75449 c 0,0 -0.9713,-1.34415 -1.56487,-1.10743 -0.14146,0.0565 -0.0889,0.44815 -0.0889,0.44815 0,0 0.003,0.0389 0.0133,0.0536 0.45534,0.60704 1.96935,1.14202 1.96935,1.14202 z"
           style="display:inline;fill:#ffffff;stroke:#000000;stroke-width:0.173925;stroke-dasharray:none;stroke-opacity:1;paint-order:stroke fill markers"
           sodipodi:nodetypes="cacacc"
           inkscape:label="moustache2" /><path
           id="rect17-7"
           d="m 165.28019,172.30082 c 0,0 -0.82824,-0.86544 -1.25525,-0.66192 -0.13702,0.0653 -0.0886,0.44665 -0.0886,0.44665 0,0 0.003,0.0387 0.0131,0.0535 0.45382,0.60499 1.96272,1.13815 1.96272,1.13815 z"
           style="display:none;fill:#ffffff;stroke:#000000;stroke-width:0.167916;stroke-dasharray:none;stroke-opacity:1;paint-order:stroke fill markers"
           sodipodi:nodetypes="cacacc"
           inkscape:label="moustache1" /><path
           id="path33"
           style="display:inline;fill:#ffccaa;stroke:#000000;stroke-width:0.196826;stroke-linecap:round;paint-order:stroke fill markers"
           inkscape:label="nose"
           transform="translate(1.6844984e-6)"
           d="m 164.16875,171.59038 a 0.25891754,0.30494729 0 0 1 -0.25891,0.30495 0.25891754,0.30494729 0 0 1 -0.25892,-0.30495 0.25891754,0.30494729 0 0 1 0.25892,-0.30495 0.25891754,0.30494729 0 0 1 0.25891,0.30495 z" /><ellipse
           style="display:inline;fill:#ffccaa;fill-opacity:1;stroke:#000000;stroke-width:0.1;stroke-dasharray:none;stroke-opacity:1"
           id="path37"
           cx="150.0869"
           cy="115.80498"
           rx="0.072692096"
           ry="0.034378093"
           transform="matrix(1.9682553,0,0,1.9682553,-132.13618,-57.26871)"
           inkscape:label="eye" /><ellipse
           style="display:inline;fill:#ffccaa;fill-opacity:1;stroke:#000000;stroke-width:0.196826;stroke-dasharray:none;stroke-opacity:1"
           id="ellipse40"
           cx="164.53644"
           cy="170.66505"
           rx="0.1430766"
           ry="0.067664862"
           inkscape:label="eye" /><path
           id="path38"
           d="m 162.78211,170.22932 c 0,0 0.76745,-0.14954 0.88411,0.12424 0.0289,0.0677 -0.12927,0.17897 -0.12927,0.17897 0,0 -0.0146,0.0112 -0.0233,0.0131 -0.34931,0.0771 -1.06997,-0.0831 -1.06997,-0.0831 z"
           style="display:inline;fill:#ffffff;stroke:#000000;stroke-width:0.196826;stroke-dasharray:none;stroke-opacity:1;paint-order:stroke fill markers"
           sodipodi:nodetypes="cacacc"
           inkscape:label="eyebrow"
           transform="translate(1.6844984e-6)" /><path
           id="path41"
           d="m 165.02502,170.22932 c 0,0 -0.76745,-0.14954 -0.88411,0.12424 -0.0289,0.0677 0.12927,0.17897 0.12927,0.17897 0,0 0.0146,0.0112 0.0233,0.0131 0.34931,0.0771 1.06997,-0.0831 1.06997,-0.0831 z"
           style="display:inline;fill:#ffffff;stroke:#000000;stroke-width:0.196826;stroke-dasharray:none;stroke-opacity:1;paint-order:stroke fill markers"
           sodipodi:nodetypes="cacacc"
           inkscape:label="eyebrow" /></g></g><g
       id="g59"
       transform="matrix(1.1281361,0,0,1.1281361,-176.14673,-11.702961)"
       style="display:inline"
       clip-path="none"
       inkscape:export-filename="g59.svg"
       inkscape:export-xdpi="85.521889"
       inkscape:export-ydpi="85.521889"><path
         style="display:inline;fill:#9f87af;fill-opacity:1;stroke-width:0.264583"
         d="m 34.13125,168.80416 v -52.65208 c 0,0 11.906249,-1.32291 16.139583,16.13958 4.233333,17.4625 11.641666,-18.78541 31.749999,-9.78958 20.108338,8.99584 42.597918,46.56667 58.472918,22.225 15.875,-24.34166 10.58333,-60.324998 23.28333,-26.72291 12.7,33.60208 2.64583,-13.22917 17.19792,16.93333 14.55208,30.1625 19.11615,29.76562 19.11615,29.76562 0,0 8.17893,3.20718 18.31299,-29.93942 2.55815,-8.36722 3.84813,3.76884 3.84813,3.76884 l 7.67064,40.32579 H 24.077083 Z"
         id="path57"
         sodipodi:nodetypes="ccssssscscccc"
         inkscape:original-d="m 34.13125,168.80416 v -52.65208 c 0,0 11.906249,-1.32291 16.139583,16.13958 4.233333,17.4625 11.641666,-18.78541 31.749999,-9.78958 20.108338,8.99584 42.597918,46.56667 58.472918,22.225 15.875,-24.34166 10.58333,-60.324998 23.28333,-26.72291 12.7,33.60208 2.64583,-13.22917 17.19792,16.93333 14.55208,30.1625 19.11615,29.76562 19.11615,29.76562 0,0 8.17893,3.20718 18.31299,-29.93942 2.55815,-8.36722 3.84813,3.76884 3.84813,3.76884 l 7.67064,40.32579 H 24.077083 Z"
         clip-path="url(#clipath_lpe_path-effect60)"
         inkscape:path-effect="#path-effect60" /><path
         style="display:inline;fill:#9f87af;fill-opacity:1;stroke-width:0.264583"
         d="m 219.8848,168.70437 -0.47906,-36.32625 c 0,0 0.9221,-1.82185 2.51334,-0.72147 1.59125,1.10039 5.57143,14.44957 6.46206,16.08434 7.88571,14.47427 19.28491,-34.33453 39.39324,-25.3387 20.10834,8.99584 42.59792,46.56667 58.47292,22.225 15.875,-24.34166 10.58333,-60.324995 23.28333,-26.72291 12.7,33.60208 2.64583,-13.22917 17.19792,16.93333 14.55208,30.1625 24.07708,27.78125 24.07708,27.78125 0,0 3.218,5.19155 13.35206,-27.95505 2.55815,-8.36722 3.84813,3.76884 3.84813,3.76884 l 7.67064,40.32579 H 209.83063 Z"
         id="path58"
         sodipodi:nodetypes="ccsssssscscccc"
         inkscape:original-d="m 219.8848,168.70437 -0.47906,-36.32625 c 0,0 0.9221,-1.82185 2.51334,-0.72147 1.59125,1.10039 5.57143,14.44957 6.46206,16.08434 7.88571,14.47427 19.28491,-34.33453 39.39324,-25.3387 20.10834,8.99584 42.59792,46.56667 58.47292,22.225 15.875,-24.34166 10.58333,-60.324995 23.28333,-26.72291 12.7,33.60208 2.64583,-13.22917 17.19792,16.93333 14.55208,30.1625 24.07708,27.78125 24.07708,27.78125 0,0 3.218,5.19155 13.35206,-27.95505 2.55815,-8.36722 3.84813,3.76884 3.84813,3.76884 l 7.67064,40.32579 H 209.83063 Z"
         clip-path="url(#clipath_lpe_path-effect64)"
         inkscape:path-effect="#path-effect62;#path-effect64" /></g><rect
       style="display:none;fill:#ede8d0;fill-opacity:1;stroke-width:0.263835"
       id="rect79"
       width="209.99219"
       height="83.570122"
       x="0.0049844589"
       y="105.89219" /></g></svg>
